<svg width="309" height="83" viewBox="0 0 309 83" fill="none" xmlns="http://www.w3.org/2000/svg">
<path d="M29.7511 13.249C29.6665 20.9302 29.5482 36.4768 29.7511 37.2142C29.7511 37.6751 39.7238 39.9848 47.2513 39.749C54.6065 39.5186 54.6065 43.2055 52.5775 43.8968L42.4324 44.5881L41.6715 46.6621C44.6305 48.6592 51.2501 53.7441 54.8601 57.4925C58.4109 61.1794 55.621 61.6403 54.3529 60.949L45.7295 55.649L44.9687 56.5708C47.9276 59.6432 54.0992 66.249 54.8601 67.6316C55.621 69.0142 53.3383 69.936 52.5775 69.2447L42.4324 60.4881L41.1643 60.949L47.2513 68.3229C47.7586 69.0142 48.2658 69.7055 47.5049 71.3186C46.9955 72.3986 45.4759 72.0099 44.9687 71.3186L36.8526 60.949L35.3309 61.8708C35.5845 63.0229 36.6643 65.4459 37.8671 67.6316C39.1353 69.936 37.3599 70.3968 36.8526 69.936L8.95368 36.2925C7.85465 35.678 5.14934 34.8177 3.12032 36.2925C1.09131 37.7673 2.2749 40.9012 3.12032 42.2838L24.6786 74.3142C25.6931 76.465 30.7656 80.8125 42.9397 80.9968C55.1138 81.1812 60.8627 73.2389 62.2153 69.2447L74.8967 29.3794C75.0658 28.5345 75.1503 26.6142 74.1358 25.6925C73.1213 24.7707 71.3459 25.6157 70.585 26.1534L62.9762 39.0577L61.2008 38.3664L67.2879 13.249C67.5415 11.7128 67.2879 8.64032 64.2444 8.64032C61.2008 8.64032 59.5945 11.7128 59.1718 13.249L52.5775 32.1447H51.3094L53.592 5.87509C53.5075 5.03016 52.7297 3.10988 50.2949 2.18814C47.8601 1.2664 46.2369 3.95481 45.7296 5.41423L41.1643 32.1447H38.6281L38.1208 13.249C38.0363 11.636 37.1063 8.45597 34.0628 8.64032C31.0193 8.82467 29.9202 11.7896 29.7511 13.249Z" fill="#F49C2A" fill-opacity="0.86" stroke="#9F3100" stroke-opacity="0.86" stroke-width="3"/>
<path d="M247.557 35.4L252.417 56.46L264.747 35.4H270.732L265.332 66H260.157L262.227 54.3L264.747 43.86L253.857 62.4H249.042L244.947 43.59L243.732 54.3L241.662 66H236.487L241.887 35.4H247.557ZM292.427 60.825L291.527 66H273.797L279.197 35.4H296.477L295.577 40.575H283.697L282.392 47.91H292.922L292.022 53.085H281.492L280.097 60.825H292.427Z" fill="#9F3100"/>
<path d="M108.478 66L111.742 47.632H95.4863L92.2223 66H84.5423L92.2223 22.48H99.9023L96.7663 40.272H113.022L116.158 22.48H123.838L116.158 66H108.478ZM154.663 58.64L153.383 66H128.167L135.847 22.48H160.423L159.143 29.84H142.247L140.391 40.272H155.367L154.087 47.632H139.111L137.127 58.64H154.663ZM188.848 58.64L187.568 66H162.48L170.16 22.48H177.84L171.44 58.64H188.848ZM194.917 66L202.597 22.48H216.101C220.667 22.48 223.995 23.7173 226.085 26.192C228.176 28.624 228.901 31.8667 228.261 35.92L227.685 39.504C227.131 43.088 225.616 45.9467 223.141 48.08C220.709 50.2133 217.232 51.28 212.709 51.28H205.221L202.597 66H194.917ZM215.653 29.84H208.997L206.501 43.92H213.157C215.035 43.92 216.549 43.5147 217.701 42.704C218.896 41.8507 219.621 40.6773 219.877 39.184L220.453 35.792C220.795 33.9147 220.539 32.464 219.685 31.44C218.875 30.3733 217.531 29.84 215.653 29.84Z" fill="#9F3100"/>
</svg>
