<svg width="318" height="362" viewBox="0 0 318 362" fill="none" xmlns="http://www.w3.org/2000/svg">
<g filter="url(#filter0_d_120_44)">
<path d="M121.517 61.2939C121.232 89.4905 120.834 146.561 121.517 149.267C121.517 150.959 155.124 159.438 180.491 158.572C205.277 157.726 205.277 171.261 198.439 173.799L164.252 176.336L161.688 183.949C171.659 191.28 193.966 209.947 206.131 223.707C218.097 237.241 208.695 238.933 204.422 236.395L175.363 216.939L172.799 220.323C182.77 231.602 203.567 255.851 206.131 260.926C208.695 266.002 201.003 269.385 198.439 266.848L164.252 234.703L159.978 236.395L180.491 263.464C182.2 266.002 183.909 268.539 181.345 274.461C179.629 278.425 174.508 276.998 172.799 274.461L145.449 236.395L140.32 239.779C139.109 240.78 144.814 252.903 148.867 260.926C153.141 269.385 147.158 271.077 145.449 269.385L51.433 145.884C47.7294 143.628 38.6128 140.47 31.7753 145.884C24.9378 151.298 28.9264 162.802 31.7753 167.877L104.424 285.457C107.842 293.352 124.936 309.312 165.961 309.988C206.986 310.665 226.359 281.51 230.917 266.848L273.652 120.507C274.222 117.405 274.506 110.356 271.088 106.972C267.669 103.589 261.686 106.69 259.122 108.664L233.482 156.035L227.499 153.497L248.011 61.2939C248.866 55.6545 248.011 44.3759 237.755 44.3759C227.499 44.3759 222.086 55.6545 220.661 61.2939L198.439 130.658H194.166L201.858 34.225C201.573 31.1234 198.952 24.0742 190.747 20.6906C182.542 17.307 177.072 27.1759 175.363 32.5332L159.978 130.658H151.432L149.722 61.2939C149.437 55.3726 146.303 43.6991 136.047 44.3759C125.791 45.0526 122.087 55.9365 121.517 61.2939Z" stroke="#9F3100" stroke-width="6" shape-rendering="crispEdges"/>
</g>
<defs>
<filter id="filter0_d_120_44" x="0.0020752" y="-3.05176e-05" width="317.998" height="362" filterUnits="userSpaceOnUse" color-interpolation-filters="sRGB">
<feFlood flood-opacity="0" result="BackgroundImageFix"/>
<feColorMatrix in="SourceAlpha" type="matrix" values="0 0 0 0 0 0 0 0 0 0 0 0 0 0 0 0 0 0 127 0" result="hardAlpha"/>
<feOffset dx="8" dy="16"/>
<feGaussianBlur stdDeviation="16.5"/>
<feComposite in2="hardAlpha" operator="out"/>
<feColorMatrix type="matrix" values="0 0 0 0 0 0 0 0 0 0 0 0 0 0 0 0 0 0 0.4 0"/>
<feBlend mode="normal" in2="BackgroundImageFix" result="effect1_dropShadow_120_44"/>
<feBlend mode="normal" in="SourceGraphic" in2="effect1_dropShadow_120_44" result="shape"/>
</filter>
</defs>
</svg>
